<?xml version="1.0" encoding="UTF-8"?>
<svg version="1.1" xmlns="http://www.w3.org/2000/svg" width="380" height="447">
<path d="M0 0 C2.62088896 2.29627281 5.16536632 4.66309629 7.67919922 7.07568359 C9.8427462 9.14162695 12.04424768 11.07874423 14.33935547 12.99365234 C47.09066083 41.61721055 65.90970615 85.90930753 70.27685547 128.55615234 C71.20967249 148.75131926 70.9748488 168.81378039 66.27685547 188.55615234 C65.96337158 189.89323242 65.96337158 189.89323242 65.64355469 191.25732422 C57.95230725 222.9902013 41.90004768 252.03091898 19.27685547 275.55615234 C18.78523926 276.07886719 18.29362305 276.60158203 17.78710938 277.14013672 C6.57012395 289.0317006 -5.91611366 298.81169946 -19.72314453 307.55615234 C-19.20429933 312.48518178 -17.59820113 316.58221548 -15.66064453 321.09130859 C-11.85576219 331.09497842 -12.51650957 343.80440766 -16.72314453 353.55615234 C-20.43622079 361.79156506 -25.36073517 368.18279219 -31.72314453 374.55615234 C-32.33802734 375.18263672 -32.95291016 375.80912109 -33.58642578 376.45458984 C-47.70070681 389.81328838 -71.93725095 400.45217907 -91.46533203 400.76489258 C-92.59841797 400.7841832 -93.73150391 400.80347382 -94.89892578 400.823349 C-100.12644331 400.88184893 -105.35380015 400.93076473 -110.58154297 400.96118164 C-113.31445983 400.97879002 -116.04630438 401.01327168 -118.77880859 401.0637207 C-135.72989466 401.36907828 -150.78966957 400.65800816 -166.72314453 394.55615234 C-167.77904785 394.16274658 -168.83495117 393.76934082 -169.92285156 393.36401367 C-172.27194027 392.41350894 -174.52359183 391.38348357 -176.78564453 390.24365234 C-177.5589209 389.86466797 -178.33219727 389.48568359 -179.12890625 389.09521484 C-195.43683359 380.84768389 -209.46052298 368.15777718 -216.16064453 350.86865234 C-220.21369111 337.21164758 -217.44694011 325.46786027 -212.72314453 312.55615234 C-212.05106761 310.5579639 -211.38241298 308.55860323 -210.72314453 306.55615234 C-211.41150391 306.32025391 -212.09986328 306.08435547 -212.80908203 305.84130859 C-216.31021126 304.2972449 -219.27324428 302.23682076 -222.34814453 299.99365234 C-222.96133545 299.55037598 -223.57452637 299.10709961 -224.20629883 298.65039062 C-229.89327192 294.50165477 -235.3637067 290.1203722 -240.72314453 285.55615234 C-241.92777344 284.53714844 -241.92777344 284.53714844 -243.15673828 283.49755859 C-248.14419531 279.18294569 -252.55362116 274.66065974 -256.72314453 269.55615234 C-257.55716797 268.54810547 -258.39119141 267.54005859 -259.25048828 266.50146484 C-266.19648178 257.97374715 -272.16208155 249.03750354 -277.72314453 239.55615234 C-278.07473633 238.96817871 -278.42632812 238.38020508 -278.78857422 237.77441406 C-287.59228416 222.917627 -293.61659634 206.30448334 -297.66064453 189.55615234 C-297.84780029 188.78190918 -298.03495605 188.00766602 -298.2277832 187.20996094 C-301.20599989 173.86988713 -302.10796327 160.49474052 -302.03564453 146.86865234 C-302.0324118 145.7608844 -302.0324118 145.7608844 -302.02911377 144.6307373 C-301.79189003 93.70030928 -281.05840583 48.40185949 -245.52587891 12.33154297 C-217.16100235 -15.60309711 -179.83947079 -32.59094783 -140.72314453 -38.44384766 C-139.70003174 -38.59853516 -139.70003174 -38.59853516 -138.65625 -38.75634766 C-90.86775524 -45.02222381 -37.19024763 -31.1622449 0 0 Z " fill="#FEFEFE" transform="translate(306.72314453125,46.44384765625)"/>
<path d="M0 0 C2.62088896 2.29627281 5.16536632 4.66309629 7.67919922 7.07568359 C9.8427462 9.14162695 12.04424768 11.07874423 14.33935547 12.99365234 C47.09066083 41.61721055 65.90970615 85.90930753 70.27685547 128.55615234 C71.20967249 148.75131926 70.9748488 168.81378039 66.27685547 188.55615234 C65.96337158 189.89323242 65.96337158 189.89323242 65.64355469 191.25732422 C57.95230725 222.9902013 41.90004768 252.03091898 19.27685547 275.55615234 C18.78523926 276.07886719 18.29362305 276.60158203 17.78710938 277.14013672 C6.57012395 289.0317006 -5.91611366 298.81169946 -19.72314453 307.55615234 C-19.20429933 312.48518178 -17.59820113 316.58221548 -15.66064453 321.09130859 C-11.85576219 331.09497842 -12.51650957 343.80440766 -16.72314453 353.55615234 C-20.43622079 361.79156506 -25.36073517 368.18279219 -31.72314453 374.55615234 C-32.33802734 375.18263672 -32.95291016 375.80912109 -33.58642578 376.45458984 C-47.70070681 389.81328838 -71.93725095 400.45217907 -91.46533203 400.76489258 C-92.59841797 400.7841832 -93.73150391 400.80347382 -94.89892578 400.823349 C-100.12644331 400.88184893 -105.35380015 400.93076473 -110.58154297 400.96118164 C-113.31445983 400.97879002 -116.04630438 401.01327168 -118.77880859 401.0637207 C-135.72989466 401.36907828 -150.78966957 400.65800816 -166.72314453 394.55615234 C-167.77904785 394.16274658 -168.83495117 393.76934082 -169.92285156 393.36401367 C-172.27194027 392.41350894 -174.52359183 391.38348357 -176.78564453 390.24365234 C-177.5589209 389.86466797 -178.33219727 389.48568359 -179.12890625 389.09521484 C-195.43683359 380.84768389 -209.46052298 368.15777718 -216.16064453 350.86865234 C-220.21369111 337.21164758 -217.44694011 325.46786027 -212.72314453 312.55615234 C-212.05106761 310.5579639 -211.38241298 308.55860323 -210.72314453 306.55615234 C-211.41150391 306.32025391 -212.09986328 306.08435547 -212.80908203 305.84130859 C-216.31021126 304.2972449 -219.27324428 302.23682076 -222.34814453 299.99365234 C-222.96133545 299.55037598 -223.57452637 299.10709961 -224.20629883 298.65039062 C-229.89327192 294.50165477 -235.3637067 290.1203722 -240.72314453 285.55615234 C-241.92777344 284.53714844 -241.92777344 284.53714844 -243.15673828 283.49755859 C-248.14419531 279.18294569 -252.55362116 274.66065974 -256.72314453 269.55615234 C-257.55716797 268.54810547 -258.39119141 267.54005859 -259.25048828 266.50146484 C-266.19648178 257.97374715 -272.16208155 249.03750354 -277.72314453 239.55615234 C-278.07473633 238.96817871 -278.42632812 238.38020508 -278.78857422 237.77441406 C-287.59228416 222.917627 -293.61659634 206.30448334 -297.66064453 189.55615234 C-297.84780029 188.78190918 -298.03495605 188.00766602 -298.2277832 187.20996094 C-301.20599989 173.86988713 -302.10796327 160.49474052 -302.03564453 146.86865234 C-302.0324118 145.7608844 -302.0324118 145.7608844 -302.02911377 144.6307373 C-301.79189003 93.70030928 -281.05840583 48.40185949 -245.52587891 12.33154297 C-217.16100235 -15.60309711 -179.83947079 -32.59094783 -140.72314453 -38.44384766 C-139.70003174 -38.59853516 -139.70003174 -38.59853516 -138.65625 -38.75634766 C-90.86775524 -45.02222381 -37.19024763 -31.1622449 0 0 Z M-232.72314453 28.55615234 C-233.45146484 29.21873047 -234.17978516 29.88130859 -234.93017578 30.56396484 C-264.0649513 58.17638272 -280.7671082 100.23720627 -281.94189453 139.88037109 C-282.6694502 178.02935764 -272.66465679 214.6267538 -249.72314453 245.55615234 C-249.06572266 246.45462891 -248.40830078 247.35310547 -247.73095703 248.27880859 C-235.67417961 263.83064406 -221.02713601 276.68682469 -204.72314453 287.55615234 C-203.73314453 287.55615234 -202.74314453 287.55615234 -201.72314453 287.55615234 C-196.85375562 275.65895744 -193.5116522 263.59665682 -190.38720703 251.13964844 C-189.53277883 247.81554576 -188.57629695 244.53345402 -187.59814453 241.24365234 C-184.05556375 228.9842649 -181.54491894 216.55545107 -179.76196289 203.92456055 C-179.13930092 199.63454476 -178.47577755 195.55861925 -176.72314453 191.55615234 C-174.0042189 190.6498438 -172.10970466 190.33413656 -169.28564453 190.24365234 C-168.52380859 190.20626953 -167.76197266 190.16888672 -166.97705078 190.13037109 C-163.81760793 190.72721558 -162.74729814 192.10215714 -160.72314453 194.55615234 C-158.56461699 204.34683452 -162.28918169 215.88168895 -164.34814453 225.49365234 C-164.71648179 227.24926539 -165.08480855 229.00488064 -165.453125 230.76049805 C-167.85259076 242.07336513 -170.53865937 253.23704399 -174.01416016 264.27294922 C-174.75727005 266.66604967 -175.45537713 269.06900253 -176.14501953 271.47802734 C-180.35445993 286.09212176 -185.24210556 300.50044506 -191.23486328 314.48583984 C-191.64953857 315.46053223 -192.06421387 316.43522461 -192.49145508 317.43945312 C-193.28721027 319.29153588 -194.09883591 321.13691615 -194.92944336 322.97363281 C-197.788014 329.60682895 -199.15037584 335.95537124 -196.95874023 343.02026367 C-190.66355547 358.82698151 -176.39037708 368.41766324 -161.37939453 375.02880859 C-157.86016521 376.37318708 -154.3395816 377.50088878 -150.72314453 378.55615234 C-149.75755615 378.85030029 -149.75755615 378.85030029 -148.77246094 379.15039062 C-127.90307644 385.29021676 -102.4208546 385.08031568 -81.72314453 378.55615234 C-80.38216505 378.16625685 -79.0410182 377.77693649 -77.69970703 377.38818359 C-65.97512606 373.85591682 -56.00313657 368.53553944 -46.72314453 360.55615234 C-46.08376953 360.01216797 -45.44439453 359.46818359 -44.78564453 358.90771484 C-39.12492296 353.71058685 -34.3334374 346.19148713 -33.48925781 338.39648438 C-33.29911071 331.79641294 -34.66077294 327.28106413 -37.59814453 321.43115234 C-38.43440979 319.66561102 -39.26762016 317.89862024 -40.09814453 316.13037109 C-40.53255859 315.21562012 -40.96697266 314.30086914 -41.41455078 313.35839844 C-56.12706804 281.85275048 -67.22904529 248.16591419 -75.22314453 214.36865234 C-75.47878174 213.2996167 -75.73441895 212.23058105 -75.99780273 211.12915039 C-77.28206845 205.47937503 -78.1542136 200.35237341 -77.72314453 194.55615234 C-75.58059301 191.21377197 -74.12031955 190.6644728 -70.28564453 189.61865234 C-66.13878575 189.54590044 -64.73746835 189.70929096 -61.72314453 192.55615234 C-59.03760166 198.78661181 -57.78281287 205.44752337 -56.27368164 212.04394531 C-55.00675855 217.52814389 -53.49820782 222.89217812 -51.77685547 228.25341797 C-50.78305331 231.36837526 -49.82071914 234.49102085 -48.86767578 237.61865234 C-43.56291475 254.87935883 -37.9818215 272.00823603 -30.72314453 288.55615234 C-19.74784161 284.65516991 -10.49945326 276.02627031 -2.25878906 268.04052734 C-0.67565772 266.51025095 0.92717959 265.00245786 2.53076172 263.49365234 C31.77947573 235.57108738 49.26273247 194.45154254 50.34326172 154.07470703 C50.93853827 125.8685196 46.52412196 100.20178813 34.27685547 74.55615234 C33.95458984 73.88116699 33.63232422 73.20618164 33.30029297 72.51074219 C13.60380833 32.04687665 -22.0128696 3.83009824 -63.72314453 -11.44384766 C-64.89619141 -11.87439453 -66.06923828 -12.30494141 -67.27783203 -12.74853516 C-126.38986198 -31.76462459 -188.4613302 -12.64083427 -232.72314453 28.55615234 Z " fill="#060505" transform="translate(306.72314453125,46.44384765625)"/>
<path d="M0 0 C0.33 0 0.66 0 1 0 C1 1.98 1 3.96 1 6 C27.73 6 54.46 6 82 6 C83.32 12.27 84.64 18.54 86 25 C86.92693521 28.4398542 87.85951061 31.80298504 88.9375 35.1875 C89.19563477 36.02095947 89.45376953 36.85441895 89.71972656 37.71313477 C90.23718054 39.38082323 90.75803185 41.04746239 91.28271484 42.71289062 C91.91737103 44.73653228 92.53243295 46.76629634 93.14453125 48.796875 C100.66370509 73.55966657 109.40281947 97.85720602 120.47265625 121.26953125 C125.10497165 131.10503902 128.08109372 138.29554588 124.5625 149 C117.90140161 163.94056224 102.52333427 173.00737785 88 179 C82.44092214 181.02952412 76.76549026 182.67158464 71 184 C70.20134521 184.18473877 69.40269043 184.36947754 68.57983398 184.55981445 C60.64423936 186.20341134 52.77097421 186.44013076 44.6875 186.4375 C43.98779083 186.4385675 43.28808167 186.43963501 42.56716919 186.44073486 C29.88842153 186.4129563 18.1039698 184.88255134 6 181 C5.29117676 180.77538086 4.58235352 180.55076172 3.85205078 180.31933594 C-11.69920851 175.19402285 -27.45405481 166.02467431 -35.03515625 151.015625 C-35.35355469 150.35046875 -35.67195313 149.6853125 -36 149 C-36.433125 148.195625 -36.86625 147.39125 -37.3125 146.5625 C-39.84386674 137.1274058 -36.67045621 129.55643746 -32.875 120.9375 C-31.85280849 118.52195735 -30.83326526 116.10529228 -29.81640625 113.6875 C-29.32543457 112.52992188 -28.83446289 111.37234375 -28.32861328 110.1796875 C-25.56252423 103.55977868 -23.20984277 96.8229778 -21 90 C-20.69497559 89.05898438 -20.38995117 88.11796875 -20.07568359 87.1484375 C-13.40654266 66.38988279 -8.00917932 45.48976445 -3.6875 24.125 C-3.43274902 22.87106445 -3.17799805 21.61712891 -2.91552734 20.32519531 C-1.58093032 13.56214534 -0.50543485 6.87748871 0 0 Z " fill="#FDC101" transform="translate(147,243)"/>
<path d="M0 0 C2.36696602 -0.00217841 4.73345805 -0.02039122 7.1003418 -0.03930664 C40.77025152 -0.16343072 40.77025152 -0.16343072 49.98510742 6.47045898 C51.19995117 8.18530273 51.19995117 8.18530273 51.14916992 10.65405273 C48.96656916 16.47432144 42.31319922 19.21757737 36.94995117 21.67358398 C18.43401942 28.80642587 -4.77431534 30.06843734 -23.80004883 24.18530273 C-24.69852539 23.94553711 -25.59700195 23.70577148 -26.52270508 23.45874023 C-33.35266019 21.5838506 -41.53785232 19.22341445 -45.80004883 13.18530273 C-46.05004883 9.93530273 -46.05004883 9.93530273 -45.80004883 7.18530273 C-31.57897547 -0.57164637 -15.82941661 -0.00162104 0 0 Z " fill="#FED871" transform="translate(188.800048828125,381.814697265625)"/>
<path d="M0 0 C6.18387985 2.17580958 10.17967758 6.19195021 13.3125 11.875 C15.44266743 16.52659011 15.81755349 20.24257107 14.33984375 25.2265625 C11.90410532 31.53206719 8.0865479 35.95672605 2 39 C-9.95100391 39.93462979 -9.95100391 39.93462979 -15.5625 37.375 C-20.68951 32.37945179 -25.25568481 27.7429941 -25.375 20.25 C-25.23759186 15.05902594 -24.2048804 11.13447278 -21 7 C-14.15613 0.79182543 -9.195314 -0.71634882 0 0 Z " fill="#080404" transform="translate(135,169)"/>
<path d="M0 0 C5.23724692 2.96387807 8.8638854 7.84165621 10.75 13.5 C11.5407808 19.86013702 11.00285575 24.47539562 7.25 29.7421875 C3.65315293 33.95724266 0.05871208 37.17393952 -5.66796875 37.73828125 C-12.109404 37.91090081 -16.98277002 37.40563312 -22.25 33.5 C-27.05230206 28.91326262 -28.42521834 24.86687537 -28.625 18.3125 C-28.56954262 12.08740873 -27.55776524 8.05456429 -23.25 3.5 C-16.34137889 -1.88872447 -8.24669806 -3.6069373 0 0 Z " fill="#060303" transform="translate(261.25,170.5)"/>
<path d="M0 0 C1.9375 1.0625 1.9375 1.0625 3 3 C3.36528977 6.4093712 3.6140629 8.88023824 1.9375 11.9375 C-1.11976176 13.6140629 -3.5906288 13.36528977 -7 13 C-8.9375 11.9375 -8.9375 11.9375 -10 10 C-10.36528977 6.5906288 -10.6140629 4.11976176 -8.9375 1.0625 C-5.88023824 -0.6140629 -3.4093712 -0.36528977 0 0 Z " fill="#0E0400" transform="translate(218,276)"/>
<path d="M0 0 C1.9375 1.0625 1.9375 1.0625 3 3 C3.36528977 6.4093712 3.6140629 8.88023824 1.9375 11.9375 C-1.11976176 13.6140629 -3.5906288 13.36528977 -7 13 C-8.9375 11.9375 -8.9375 11.9375 -10 10 C-10.36528977 6.5906288 -10.6140629 4.11976176 -8.9375 1.0625 C-5.88023824 -0.6140629 -3.4093712 -0.36528977 0 0 Z " fill="#0D0400" transform="translate(171,276)"/>
<path d="M0 0 C0.33 0 0.66 0 1 0 C1 1.98 1 3.96 1 6 C27.4 6 53.8 6 81 6 C81 6.33 81 6.66 81 7 C54.6 7 28.2 7 1 7 C1 10.3 1 13.6 1 17 C0.67 17.33 0.34 17.66 0 18 C-0.23192865 19.51469448 -0.41215238 21.03754562 -0.5625 22.5625 C-0.64628906 23.38878906 -0.73007813 24.21507812 -0.81640625 25.06640625 C-0.87699219 25.70449219 -0.93757812 26.34257812 -1 27 C-1.66 27 -2.32 27 -3 27 C-3.33 27.66 -3.66 28.32 -4 29 C-3.22918461 22.65386942 -2.34949845 16.32726195 -1.4375 10 C-1.29892578 9.03449219 -1.16035156 8.06898438 -1.01757812 7.07421875 C-0.6790295 4.71605249 -0.33982318 2.35798287 0 0 Z " fill="#EDC12F" transform="translate(147,243)"/>
<path d="M0 0 C2.05078125 0.03255208 4.1015625 0.06510417 6.15234375 0.09765625 C-3.48050341 5.47925749 -15.27209329 5.56501864 -26.02636719 5.43383789 C-28.1104146 5.41001038 -30.19319208 5.4133388 -32.27734375 5.41992188 C-39.66900996 5.40317934 -46.67344897 4.97054031 -53.84765625 3.09765625 C-53.84765625 2.76765625 -53.84765625 2.43765625 -53.84765625 2.09765625 C-51.36841824 2.0708053 -48.88946785 2.05089078 -46.41015625 2.03515625 C-45.70310547 2.02677734 -44.99605469 2.01839844 -44.26757812 2.00976562 C-42.46072066 2.00112037 -40.65378022 2.04545614 -38.84765625 2.09765625 C-38.51765625 2.42765625 -38.18765625 2.75765625 -37.84765625 3.09765625 C-36.39461317 3.19651541 -34.93686953 3.22844958 -33.48046875 3.23046875 C-32.59488281 3.23175781 -31.70929688 3.23304688 -30.796875 3.234375 C-29.86488281 3.23050781 -28.93289062 3.22664063 -27.97265625 3.22265625 C-27.04839844 3.22652344 -26.12414062 3.23039062 -25.171875 3.234375 C-24.28371094 3.23308594 -23.39554688 3.23179687 -22.48046875 3.23046875 C-21.25674561 3.22877686 -21.25674561 3.22877686 -20.00830078 3.22705078 C-17.66379252 3.18022946 -17.66379252 3.18022946 -14.84765625 2.09765625 C-11.72279609 1.79279184 -8.59737514 1.58924409 -5.46484375 1.37890625 C-2.82014377 1.09469968 -2.43308676 0.12859867 0 0 Z " fill="#E0B322" transform="translate(218.84765625,423.90234375)"/>
<path d="M0 0 C2.47960136 0.14024219 4.95852402 0.2869185 7.4375 0.4375 C8.14455078 0.47681641 8.85160156 0.51613281 9.58007812 0.55664062 C14.88671875 0.88671875 14.88671875 0.88671875 16 2 C17.92667507 2.08748207 19.85651861 2.10697334 21.78515625 2.09765625 C22.95498047 2.09443359 24.12480469 2.09121094 25.33007812 2.08789062 C27.17762695 2.07532227 27.17762695 2.07532227 29.0625 2.0625 C30.29806641 2.05798828 31.53363281 2.05347656 32.80664062 2.04882812 C35.87114117 2.03699608 38.93554721 2.02051173 42 2 C42 2.33 42 2.66 42 3 C28.22609611 5.35256761 13.36416183 5.23618715 0 1 C0 0.67 0 0.34 0 0 Z " fill="#FED551" transform="translate(165,405)"/>
<path d="M0 0 C0.33 0 0.66 0 1 0 C1 1.98 1 3.96 1 6 C1.66 6.33 2.32 6.66 3 7 C2.34 7 1.68 7 1 7 C1.01160156 7.71027344 1.02320313 8.42054688 1.03515625 9.15234375 C1.04869141 10.53099609 1.04869141 10.53099609 1.0625 11.9375 C1.07410156 12.85402344 1.08570313 13.77054687 1.09765625 14.71484375 C1 17 1 17 0 18 C-0.23192865 19.51469448 -0.41215238 21.03754562 -0.5625 22.5625 C-0.64628906 23.38878906 -0.73007813 24.21507812 -0.81640625 25.06640625 C-0.87699219 25.70449219 -0.93757812 26.34257812 -1 27 C-1.66 27 -2.32 27 -3 27 C-3.33 27.66 -3.66 28.32 -4 29 C-3.22918461 22.65386942 -2.34949845 16.32726195 -1.4375 10 C-1.29892578 9.03449219 -1.16035156 8.06898438 -1.01757812 7.07421875 C-0.6790295 4.71605249 -0.33982318 2.35798287 0 0 Z " fill="#D4AC2B" transform="translate(147,243)"/>
<path d="M0 0 C4.32992739 5.45947366 4.46345938 10.23133738 4 17 C3 20.125 3 20.125 2 22 C1.67 22 1.34 22 1 22 C1.01740234 20.49759766 1.01740234 20.49759766 1.03515625 18.96484375 C1.04454398 17.62239772 1.05364312 16.27994964 1.0625 14.9375 C1.07410156 13.62652344 1.08570313 12.31554687 1.09765625 10.96484375 C1.00452335 7.1836481 0.61448726 3.72079293 0 0 Z " fill="#D7A91B" transform="translate(269,370)"/>
<path d="M0 0 C1 3 1 3 0.56640625 4.703125 C-0.25502744 8.03418024 -0.10436743 11.34263542 -0.0625 14.75 C-0.05798828 15.44738281 -0.05347656 16.14476562 -0.04882812 16.86328125 C-0.0371002 18.57555803 -0.01916653 20.28779033 0 22 C-2.99184186 19.00815814 -3.17435017 16.3098742 -3.25 12.25 C-3.22174515 7.43254836 -2.21496156 4.24534299 0 0 Z " fill="#D2A81D" transform="translate(112,370)"/>
<path d="M0 0 C2.96680942 2.96680942 3.53759451 6.47016225 4.6875 10.4375 C4.92533203 11.21416016 5.16316406 11.99082031 5.40820312 12.79101562 C5.62798828 13.53931641 5.84777344 14.28761719 6.07421875 15.05859375 C6.27619873 15.74236084 6.47817871 16.42612793 6.6862793 17.13061523 C7 19 7 19 6 22 C2.14301991 15.38803413 0 7.64439194 0 0 Z " fill="#DFB322" transform="translate(235,279)"/>
<path d="M0 0 C0.66 0 1.32 0 2 0 C2 1.65 2 3.3 2 5 C1.34 5 0.68 5 0 5 C0.03480469 5.556875 0.06960937 6.11375 0.10546875 6.6875 C0.313323 12.54701038 -0.65674193 16.6300336 -3 22 C-3.9867097 18.88925167 -3.96838493 16.83557243 -3.22265625 13.671875 C-3.03896484 12.87265625 -2.85527344 12.0734375 -2.66601562 11.25 C-2.46685547 10.425 -2.26769531 9.6 -2.0625 8.75 C-1.86720703 7.90953125 -1.67191406 7.0690625 -1.47070312 6.203125 C-0.98857714 4.13351102 -0.49536137 2.06648605 0 0 Z " fill="#E6B822" transform="translate(142,274)"/>
<path d="M0 0 C2.43816585 -0.0809723 4.87364384 -0.14046972 7.3125 -0.1875 C8.34793945 -0.22520508 8.34793945 -0.22520508 9.40429688 -0.26367188 C14.55674183 -0.33834499 14.55674183 -0.33834499 16.98046875 1.51171875 C17.31691406 2.00285156 17.65335938 2.49398438 18 3 C11.71739294 3.23268915 6.11980533 2.40454548 0 1 C0 0.67 0 0.34 0 0 Z " fill="#D9AB1C" transform="translate(165,426)"/>
<path d="M0 0 C5.4611399 0.35233161 5.4611399 0.35233161 8 1 C9.5 3.0625 9.5 3.0625 10 5 C9.34 4.67 8.68 4.34 8 4 C3.76028942 3.76446052 0.63821698 3.67154114 -3 6 C-2.67 4.68 -2.34 3.36 -2 2 C-1.34 2 -0.68 2 0 2 C0 1.34 0 0.68 0 0 Z " fill="#E8B71D" transform="translate(163,273)"/>
<path d="M0 0 C-5.89738492 2.29342747 -10.66606918 3.34548714 -17 3 C-17 2.67 -17 2.34 -17 2 C-11.29950762 -0.08554599 -5.95756226 -1.73003446 0 0 Z " fill="#FED658" transform="translate(224,404)"/>
</svg>
